<?xml version="1.0" standalone="no"?>
<!DOCTYPE svg PUBLIC "-//W3C//DTD SVG 20010904//EN"
 "http://www.w3.org/TR/2001/REC-SVG-20010904/DTD/svg10.dtd">
<svg version="1.0" xmlns="http://www.w3.org/2000/svg"
 width="179.000000pt" height="130.000000pt" viewBox="0 0 179.000000 130.000000"
 preserveAspectRatio="xMidYMid meet">
<metadata>
Created by potrace 1.16, written by Peter Selinger 2001-2019
</metadata>
<g transform="translate(0.000000,130.000000) scale(0.100000,-0.100000)"
fill="#000000" stroke="none">
<path d="M305 820 c-10 -11 -15 -20 -11 -20 4 0 2 -9 -4 -20 -6 -11 -7 -20 -1
-20 5 0 12 11 15 25 4 14 11 25 16 25 6 0 5 -8 -2 -19 -9 -15 -9 -28 0 -59 19
-63 15 -81 -28 -119 -38 -35 -40 -38 -38 -94 l2 -57 22 16 c12 10 29 31 38 49
8 18 29 39 45 48 46 23 69 75 34 75 -14 0 -15 2 -4 9 14 9 79 -4 94 -19 5 -4
4 -18 -3 -30 -6 -12 -9 -24 -6 -27 3 -3 10 5 15 18 9 21 10 19 10 -18 1 -23 6
-52 11 -65 11 -23 12 -23 182 -20 144 2 173 0 188 -13 15 -14 18 -14 30 0 10
12 40 15 139 17 l126 2 -124 3 c-79 3 -128 0 -136 -7 -10 -8 -19 -8 -34 -1
-12 7 -87 11 -185 11 -184 0 -186 1 -186 70 0 46 -16 68 -65 91 -25 12 -45 26
-45 31 0 6 6 5 15 -2 11 -9 22 -9 46 -1 18 6 33 11 35 11 1 0 5 -12 7 -27 l4
-28 2 28 1 27 382 -2 382 -3 7 -25 7 -25 1 28 c1 30 8 32 46 15 19 -9 28 -9
37 0 7 7 16 12 22 12 5 0 -5 -11 -24 -25 -19 -14 -41 -25 -50 -25 -22 0 -40
-41 -40 -90 0 -29 -6 -43 -22 -54 -18 -13 -19 -16 -6 -16 23 0 38 30 39 82 1
24 3 35 6 26 2 -10 9 -18 14 -18 6 0 5 9 -2 21 -13 25 -6 32 40 48 23 7 38 8
50 0 14 -9 14 -10 -1 -5 -28 8 -22 -28 8 -55 33 -30 56 -54 99 -104 l34 -40
-1 42 c0 22 3 46 6 52 4 6 -14 33 -40 61 -44 47 -46 52 -39 87 5 21 8 55 9 76
0 28 2 33 9 21 9 -16 5 -51 -8 -86 -4 -11 -2 -18 5 -18 6 0 8 4 5 10 -3 5 -2
10 4 10 6 0 8 7 5 15 -4 8 -2 15 4 15 15 0 2 73 -16 88 -26 20 -63 14 -89 -14
-27 -30 -22 -47 13 -38 19 5 24 2 24 -14 0 -28 -69 -62 -101 -49 -13 5 -46 11
-72 12 -27 2 -51 6 -54 9 -4 3 -1 6 5 6 7 0 12 4 12 9 0 4 -12 6 -27 3 -16 -3
-22 -7 -15 -9 6 -3 12 -9 12 -14 0 -6 -8 -6 -19 1 -13 6 -22 7 -26 0 -7 -11
-33 -9 -52 3 -8 5 -13 3 -13 -3 0 -14 -32 -9 -45 8 -6 7 -28 15 -50 17 l-40 5
45 -14 c42 -13 43 -14 15 -16 -57 -4 -410 -5 -422 -2 -7 2 -10 9 -6 15 3 6 -4
3 -16 -5 -12 -9 -30 -14 -40 -11 -10 3 -32 -2 -49 -11 -27 -14 -33 -14 -71 5
-29 13 -41 26 -41 40 0 17 4 20 24 15 35 -9 40 8 13 38 -29 31 -67 33 -92 6z"/>
<path d="M1146 675 c-3 -8 0 -14 7 -12 18 3 11 -17 -25 -67 -27 -39 -34 -44
-47 -33 -14 11 -14 10 -2 -5 10 -13 10 -18 1 -18 -6 0 -14 9 -17 20 -6 21 -21
24 -63 13 l-25 -7 25 -7 c22 -6 21 -7 -10 -7 -19 -1 -56 3 -82 7 -52 9 -84 -2
-58 -19 13 -8 13 -10 -2 -10 -9 0 -22 14 -30 30 -11 26 -18 30 -48 29 -21 -1
-27 -3 -15 -6 47 -11 31 -20 -40 -22 -59 -1 -77 1 -81 13 -5 14 -9 13 -29 -2
-13 -9 -21 -20 -20 -23 2 -3 48 -6 102 -8 54 -1 113 -6 130 -12 38 -12 54 -5
47 19 -5 16 -4 16 8 1 10 -12 40 -18 114 -24 l100 -7 63 74 c54 64 59 73 42
76 -12 2 -21 8 -21 13 0 15 -17 10 -24 -6z"/>
<path d="M353 555 l-28 -24 28 -1 c17 0 30 -7 34 -17 3 -10 17 -30 31 -45 14
-15 24 -30 21 -32 -2 -2 -51 -10 -109 -18 -109 -14 -155 -13 -129 2 7 5 10 12
6 16 -4 4 -13 2 -19 -4 -9 -9 -7 -16 6 -31 17 -19 17 -20 -3 -40 l-21 -21 22
0 c13 0 37 12 53 26 17 14 41 30 55 36 29 11 170 1 170 -13 0 -5 23 0 51 10
28 11 57 17 64 14 23 -8 38 6 24 23 -9 11 -29 13 -84 10 -66 -5 -74 -3 -94 18
-18 19 -21 31 -16 59 6 29 3 37 -13 46 -17 9 -26 7 -49 -14z"/>
<path d="M84 466 c5 -14 3 -17 -10 -12 -8 3 -14 3 -12 -1 38 -86 67 -130 116
-175 56 -51 150 -105 222 -127 51 -15 203 -40 311 -50 52 -5 108 -12 124 -15
21 -4 24 -4 11 2 -18 8 -18 9 -2 15 26 10 104 8 111 -2 3 -5 -3 -12 -12 -15
-10 -3 -4 -3 12 0 17 3 71 9 120 14 102 9 263 36 315 51 131 40 262 142 311
243 34 70 33 67 14 60 -11 -5 -14 -2 -9 12 10 25 2 16 -24 -28 -14 -25 -16
-35 -7 -32 32 13 -2 -45 -64 -107 -45 -45 -88 -76 -135 -99 -87 -41 -266 -78
-406 -84 -65 -3 -86 -2 -55 3 33 5 -7 7 -120 8 -125 1 -201 7 -288 22 -66 12
-123 23 -127 26 -13 8 21 83 39 88 13 4 13 5 -2 6 -12 1 -24 -14 -37 -45 -11
-25 -20 -47 -20 -49 0 -8 88 -28 200 -46 110 -18 112 -18 35 -13 -100 7 -251
35 -329 63 -73 26 -155 81 -211 143 -44 49 -65 94 -40 84 9 -3 7 7 -7 32 -26
44 -34 53 -24 28z"/>
<path d="M1060 364 c-73 -46 -147 -69 -194 -60 -20 4 -66 23 -104 42 -37 19
-58 27 -47 18 25 -20 115 -64 135 -65 8 0 4 -4 -8 -10 -13 -5 -28 -6 -33 -3
-6 3 -16 0 -24 -6 -9 -7 -28 -10 -44 -7 -38 8 -45 -1 -18 -24 22 -19 22 -19
-33 -13 -30 4 -52 4 -49 0 9 -10 209 -23 209 -14 0 5 -17 8 -37 9 -21 0 -32 3
-25 6 6 2 12 10 12 17 0 6 21 16 46 22 53 12 132 -1 151 -26 8 -10 12 -11 13
-2 0 14 30 17 30 2 0 -11 -26 -18 -85 -23 -22 -2 -7 -4 33 -5 58 -2 72 1 72
13 0 8 7 15 15 15 9 0 12 6 9 15 -4 10 -14 13 -30 9 -13 -3 -32 -3 -41 1 -10
4 -30 7 -45 6 -14 -1 -29 2 -33 8 -3 6 0 11 7 11 21 0 152 65 167 83 17 22 16
21 -49 -19z"/>
<path d="M1393 371 c-52 -33 -53 -109 -1 -145 46 -33 104 -13 128 44 17 42 -2
88 -46 106 -42 18 -43 18 -81 -5z"/>
</g>
</svg>
