<?xml version="1.0" encoding="utf-8"?>
<!-- Generator: Adobe Illustrator 27.2.0, SVG Export Plug-In . SVG Version: 6.00 Build 0)  -->
<svg version="1.1" id="a" xmlns="http://www.w3.org/2000/svg" xmlns:xlink="http://www.w3.org/1999/xlink" x="0px" y="0px"
	 viewBox="0 0 639 725" style="enable-background:new 0 0 639 725;" xml:space="preserve">
<style type="text/css">
	.st0{fill:#FFFFFF;}
</style>
<path d="M492.6,304.1c14.2,11.6,27.6,22.3,40.7,33.3c3.9,3.3,7.6,7.2,10.2,11.4c1.9,3,2.7,7.2,2.5,10.8c-0.2,3.1,0.2,5.2,2,7.6
	c4.9,6.5,9.2,13.5,14.3,19.9c7.4,9.2,6,18.2-0.3,27c-2.1,3-2.1,5.3-0.9,8.6c9.7,26.4,18.6,53.1,23.2,81c2.1,12.4,3,25.1,2.9,37.7
	c-0.1,14.5-8.8,25.9-17,37.1c-19.1,25.9-41.6,48.5-66.3,69c-2.6,2.2-4.2,4.2-4,7.9c0.3,6.3-2.2,11.3-8.1,14.2
	c-16.3,7.9-32.4,16.3-48.9,23.8c-14.8,6.8-30.2,12.4-45.1,19c-8.5,3.8-15,2.3-22.5-6.1c-2.1-2.3-4.4-4.9-5.3-7.8
	c-1.8-5.3-5.3-5.7-10.1-5.2c-10.1,1.1-20.3,1.8-29.7-3.7c-0.7-0.4-2-0.4-2.7,0c-9.4,5.3-19.6,5.1-29.7,3.6
	c-5.3-0.8-8.4,0.5-10.4,5.5c-1,2.6-2.8,5-4.6,7c-7.5,8.4-13.3,11-24.1,6.1c-28.2-12.8-56.6-25.2-84.8-37.7c-1.8-0.8-3.5-2-5.3-2.8
	c-7.5-3.6-11.5-9.1-11-17.8c0.1-1.8-1.8-4.1-3.4-5.4c-27.5-23.2-52.5-48.6-73-78.3c-9-13-12.5-27.2-11.1-43
	c2.5-29.3,10.5-57.2,19.7-84.9c2.2-6.8,4.9-13.4,7.1-20.2c0.6-1.8,0.1-4.1-0.6-5.9c-0.8-2.2-2.2-4.1-3.4-6.1
	c-4-7.1-3.7-13.9,1.2-20.5c5.3-7.2,10.6-14.6,15.5-22.1c1.2-1.9,1.7-4.8,1.5-7.1c-0.6-6.6,2.3-11.8,6.7-16c6-6,12.4-11.6,19-17
	c8.2-6.8,16.8-13.1,25.2-19.7c0.9-0.7,1.8-1.4,2.3-1.8c-3-4.3-6.2-7.7-8.2-11.8c-5.2-10.3-6.1-21,0.7-30.9c6.4-9.3,13.6-18,20.4-27
	c1.3-1.7,2.9-3.5,3.2-5.4c3.7-23.9,15-44.3,29-63.4c7.7-10.6,16.6-20.3,24.9-30.5c1.1-1.4,2.3-3.1,2.4-4.7
	c0.7-17.5,9.2-31.2,21.3-42.7c16.4-15.4,33.1-30.4,50.3-44.9c12.8-10.8,29.3-10.8,42.1,0.2c17.2,14.7,34.1,29.8,50.6,45.4
	c12.1,11.4,20,25.3,20.7,42.5c0.1,1.5,1.5,3.2,2.7,4.5c16.7,18.3,32,37.6,42.4,60.2c4.6,10,7.1,21,10.8,31.5c1,2.9,2.4,5.7,4.1,8.1
	c6.7,9.3,14.5,17.9,20.3,27.7c7.6,13,4.2,28.7-7,39C494.1,303.4,493.5,303.6,492.6,304.1L492.6,304.1z M309.7,349.8
	c0-3.8,0.4-7.7-0.1-11.4c-1.3-10.2-3.2-20.4-4.5-30.6c-0.9-7,2.1-12.3,8.3-15.7c13.5-7.4,31.2-3.1,39.8,10.3
	c-1.5-12.5-12.6-13.9-19.7-19.7c10-2.6,18.3,0.8,26.2,6.2c8.6,6,8.4,15.8,10.6,24.5c2.5-17.4-6.5-30.8-23.6-34
	c-7.5-1.4-15.5-0.6-23.2-1.2c-22.6-1.7-42.3,14.2-36.4,39.3c1.3,5.7,1.9,11.6,2.8,17.5c-0.6,0.2-1.1,0.4-1.7,0.6
	c-4.5-9.9-9.1-19.8-13.6-29.7c-0.9,5.5-1.9,11.5-3,18.4c-6.3-17.7-11-34.9-5.9-53.3c-4.1,5-8.2,9.9-12.3,14.9c1.4-8.8,3.1-17,1-24.9
	c-3.7,6.3-6.9,12.9-11,18.8c-8.5,12.2-16.4,24.7-20.4,39.2c-3.5,12.7-4.3,25.4,0.5,39.5c2.9-10,7.2-17.4,15.8-21.6
	c0.3,0.7,0.4,0.9,0.4,1c-0.2,0.6-0.4,1.3-0.7,1.8c-7.1,12.2-7.4,24.9-4.6,38.6c3.1,14.8,7,30-2,45.5c12.4-4.2,22.5-9.8,28.7-21.3
	c0.8,3,1.4,6,1,8.7c-0.6,4.8-1.6,9.5-2.8,14.2c-4.6,17.1-3.9,33.4,6.7,48.2c3.1,4.4,7.5,7.9,11.4,11.8c0.5-0.3,1-0.6,1.5-0.9
	c-4.6-15-1.4-28.4,7-41.2c1.5,9,2.6,17.8,4.6,26.3c5.6,23.4,24.2,37.9,38.2,55.5c6.9-7.6,13.5-15,20.1-22.4
	c10.1-11.4,17.3-24.4,19.9-39.6c1.1-6.5,1.9-13,2.9-20.1c8.4,13.3,12.2,26.7,7.5,42c14.1-8.8,21.2-21.5,21.5-37.1
	c0.2-10-2.7-20-4-30c-0.7-5.2-0.8-10.4-1.2-15.6c0.5-0.1,1.1-0.3,1.6-0.4c5.3,12.1,15.4,17.9,27.4,21.6c-1.4-4.2-3.6-7.8-3.7-11.4
	c-0.3-8.2,0.1-16.6,0.8-24.8c0.8-10.2,3.2-20.4,2.8-30.6c-0.2-6.5-4-13-6.4-19.9c8.8,4.1,13,11.6,16.3,21.5c0.9-3,1.4-4.3,1.6-5.7
	c2.8-13.8,1-27-3.4-40.3c-6.1-18.5-20.5-32-29-49.3v25.6c-6.1-7.6-11.2-13.9-16.3-20.3c6.5,16.9,3.5,33.4-0.7,50.9
	c-1.1-3.7-1.9-6.5-3-10.4c0.4,7.6,0.7,14,1,20.4c6.9-15.1,9.6-30.7,8.8-48.2c4.8,5.1,8.8,9.5,12.8,13.8c0.3-0.2,0.6-0.5,1-0.7
	c-0.7-7.2-1.4-14.3-2.1-21.5c9.1,20.7,24.9,38.6,25.8,62.1c-7.4-2-14.7-3.9-22.1-5.9c-0.2,1.5-0.3,1.8-0.2,2.1
	c0.6,1.3,1.4,2.6,2.1,4c5.9,11.2,10.1,23,8,35.9c-2.1,12.7-4.8,25.2-7.3,38.1c-7.4-5.5-9.5-15.2-13.6-23.7c-6.7,7.8-9.6,20.2-8.1,32
	c1.3,9.4,2.5,18.8,3.4,28.2c0.6,6.4,0.2,12.9-3.8,19.4c-4.7-15.8-13.8-28.1-23-39.9c-2.5,13.9-4.3,27.9-7.5,41.5
	c-3.5,14.4-12.5,25.1-25.8,33c3.9-11.4,8-22,11.2-32.7c7.7-25.7,9.5-51.5,1-77.6c-3.9-12.1-5.7-24.9-8.5-37.4c-0.2-1-0.4-2-0.8-3.7
	c-2,3.6-3.6,6.5-5.2,9.2c-0.3-0.1-0.6-0.2-0.9-0.3v-54.8c6.9-0.2,10.5,2.3,11.6,8.2c0.7,3.4,0.7,6.9,0.8,10.4
	c0.2,7.3,0,14.6,0.6,21.9c0.2,2.9,2,5.6,3.1,8.4c0.5-0.1,0.9-0.3,1.4-0.4c-4.2-9.6-3.8-19.4-2.8-29.5c0.4-4.5-0.3-9.3-1.2-13.8
	c-1.1-5.7-4.6-8.5-10.5-9c-2.6-0.2-5.3-0.1-8,0c-4.9,0.2-8.6,2.7-9.4,7.4c-1.1,6-1.7,12.1-1.6,18.2
	C313.6,332.7,314.5,341.5,309.7,349.8L309.7,349.8z M483.2,296.2c-5.8-1.9-10.5-3-14.8-4.9c-3.7-1.6-6.6-4-5.6-9.2
	c0.5-2.8-0.4-6-1.3-8.8c-4.2-13-12.1-23.4-22.2-32.6C414.2,218,387.9,197,357.8,181c-2.1-1.1-4.5-2.7-5.7-4.7
	c-8.2-13.6-10-28.4-6.1-43.7c1.1-4.4,4.5-6.3,9.3-5c16.4,4.1,31.5,11,44.3,22c19.5,16.7,35.1,36.9,49.7,57.8
	c0.8,1.2,1.6,2.3,2.5,3.5c-6.2-17.9-26.5-47.6-43.2-64.5c-14-14.2-29.7-25.9-49.1-31.3c-7-2-11.9-5.7-13.9-12.2
	c-2.2-6.9-3.5-14.1-4.6-21.3c-0.3-2.2,0.9-6.2,2.5-6.8c2.1-0.8,5.6,0.2,7.6,1.6c5,3.6,9.6,7.7,14.1,11.9
	c8.2,7.8,16.3,15.7,24.3,23.7c1.7,1.7,2.9,4,4.3,6c0.4-0.2,0.7-0.5,1.1-0.8c-2.2-3.6-3.9-7.9-6.9-10.8
	c-17.7-17.8-35.6-35.4-53.7-52.8c-4.9-4.7-7.8-4-14,2.1c-15.4,14.9-30.9,29.9-46.1,45.1c-6.1,6.1-11,13.2-12.7,23
	c11.8-6.3,23.2-10.6,36.9-9.6c-48.4,18.4-73.8,57.4-95,100.3c21.1-13.1,41.1-27.8,65.3-32.7c-13.6,10.1-27.9,19.9-41.4,30.9
	c-18.7,15.3-36,32.2-50.5,51.7c-4.5,6-5.7,12.5-2.4,18.7c2.8,5.2,7.1,10.2,11.9,13.7c1.8,1.3,6.8-1.6,10.4-2.8c2.1-0.7,4-1.7,6-2.4
	c2.6-0.9,3.4-2.1,2.6-5.2c-2.9-11.4,0-22.1,8.1-30c23-22.4,48.2-41.9,77.1-56.5c10.8-5.4,21.9-9.8,34.1-10.7
	c16.7-1.3,31.4,4.9,45.7,12.3c23.8,12.3,44.9,28.6,64.9,46.3c6.2,5.5,12.8,10.8,15.7,19.1c2.7,7.6,3.4,15.2,0.4,23.4
	C461.8,292.6,470.3,301.8,483.2,296.2L483.2,296.2z M285.4,568.6c-0.1-0.5-0.1-1.1-0.2-1.6c-1.8-0.8-3.4-1.9-5.2-2.3
	c-10.6-2.3-21.3-3.9-31.8-6.7c-12.4-3.2-21.8,0.9-29.9,9.8c-21.2,23.4-33,51.3-39.4,81.8c-1.7,8.3,3.4,13.7,12,14.2
	c8,0.5,14-3.8,19.9-8.2c7.4-5.7,14.4-11.8,21.7-17.6c1.6-1.2,3.5-2,5.3-2.9c0.4,0.3,0.8,0.6,1.3,0.9c-0.5,1.8-0.5,3.9-1.5,5.2
	c-8.6,11.1-18.1,21.3-30.2,28.7c-1.3,0.8-2.4,1.9-4.9,3.8c7.9,3.5,14.4,6.7,21.2,9.2c14.4,5.3,17.7,3.9,25.8-9.3
	c0.4-0.7,0.9-1.4,1.3-2.2c4.8-8.8,9.5-17.6,14.4-26.3c1.7-3,4-5.8,6-8.7c-4.9,21.9-10.7,43.3-4.9,65.6c4.3-22.9,10.8-45.1,19.6-66.5
	c8.6-21,16.3-42.6,35.8-57.2c-2.7-0.2-5.5-0.5-8.1,0.3c-9.4,2.8-13.1,11.5-19,19.9c0.4-9.6,3-17.8,1-25.9
	c-11.6,2.5-22.7,4.9-33.7,7.2c-0.2-0.7-0.4-1.3-0.6-2C269.4,574.8,277.3,571.7,285.4,568.6L285.4,568.6z M118.8,568.9l0.6-0.6
	c16.1,14.5,32.2,29.1,48.7,44c8-16.7,13-33.9,25.4-47.7c-21.6-12.5-42.8-24.7-63.9-36.9c3.5-1,6.7-0.5,9.8-0.8
	c2.9-0.3,6.3-0.8,8.6-2.5c10.3-7.7,17.1-18,18.5-30.8c0.7-6.3-0.1-13.2-2.3-19.1c-1.1-3-6.5-4.5-9.9-6.6c-0.1-0.1-0.3-0.2-0.4-0.2
	c-10.2-6.2-20.4-12.3-31.2-18.8c-6.1,14.5-12.3,29.3-18.5,44c-0.4-0.1-0.8-0.3-1.2-0.4c2.8-16.6,5.6-33.2,8.6-51
	c-1,1.3-1.3,1.5-1.4,1.8c-9.3,25-17.5,50.3-22.8,76.5c-3.1,15.4,0,28.7,10.1,40.4c17.2,20.1,34.4,40.2,51.8,60.1
	c2.4,2.8,5.5,5,8.9,8C144.8,608.1,131.8,588.5,118.8,568.9L118.8,568.9z M247.1,477.5c0.4-0.5,0.9-1,1.4-1.5
	c-4.9-5.6-10.1-11-14.7-16.9c-4.6-5.8-9.5-11.7-12.6-18.3c-4-8.5-4.1-17.8-1.3-26.9c4.4-14.5,2.3-27.6-5.9-40.4
	c-11.1-17.3-13-36.3-8.1-56.2c0.4-1.7,0.9-3.5,1.3-5.2c-0.5-0.3-1-0.6-1.5-0.8c-12.1,12.6-23.9,25.3-36.3,37.6c-6,6-5.7,11.4-1.5,18
	c9.4,14.7,18.3,29.7,27.5,44.5c2,3.2,4.2,6.3,6.4,9.5c-0.2,0.1-0.4,0.3-0.6,0.4c-18.5-21.1-37-42.3-56.1-64.1
	c18.1-17.4,35.8-34.4,53.9-51.8c-1.8,0.8-3.3,1.3-4.6,2.1c-6.9,3.7-13.8,7.3-20.5,11.3c-16.3,9.8-31.2,20.9-41.4,37.5
	c-2.7,4.4-2.8,8.4,0.4,12.4c4,4.9,7.7,10.1,12.2,14.5c23.4,23.2,46.7,46.5,70.6,69.2C225.3,461.7,236.5,469.2,247.1,477.5
	L247.1,477.5z M334.5,578.5c11,6.4,17.2,15.5,22.5,25.3c13.3,24.2,22.3,50.1,29.2,76.8c1.8,7.1,3.1,14.3,4.7,21.5
	c6.1-22.6,0.4-44.1-5.3-65.7c2,2.2,3.7,4.4,5.3,6.8c3.8,5.5,7.3,11.2,11.3,16.5c10.5,13.9,25,18,41.7,15.8c1.9-0.2,3.7-0.9,5.5-1.4
	c0-0.5,0.1-1.1,0.1-1.6c-3.1-0.6-6.3-1.3-9.5-1.7c-10.1-1.2-18.1-5.9-24.4-14c-12.2-15.5-22.3-32.3-31-50c-1.4-2.7-2.6-5.5-4.3-9.3
	c2.8,0.4,4.4,0.5,6,0.8c7.8,1.7,15.6,3.7,23.4,5.1c15.8,3,20.6-1.9,17.8-17.6c-0.8-4.6-1.3-9.2-1.9-13.8c0.7-0.3,1.4-0.7,2.1-1
	c2.7,2.9,6,5.5,8.1,8.7c8.8,13.5,17.4,27.2,25.8,41c5.4,8.9,10.4,18,16.3,28.3c0-2.3,0.2-3.3,0-4.1c-6.2-25.5-16.2-49.4-32.4-70.2
	c-9.1-11.8-19.6-21.5-36.8-16.8c-13.5,3.7-27.3,6-40.6,10c-9.5,2.8-11.4,7.7-9.6,17.4c0.4,2.2,0.8,4.4,1.3,6.5
	C353.3,584.3,347.5,576.3,334.5,578.5L334.5,578.5z M121.7,374.8c-0.4-0.2-0.8-0.4-1.2-0.6c-4.1,6.5-8.4,13-12.4,19.6
	c-5,8.4-3.3,15.9,4,22.1c11.5,9.8,22.6,20.3,34.8,29.1c21.5,15.6,44.4,28.8,69.9,37c7.4,2.4,15.2,3.8,22.9,5.6
	c0.2-0.5,0.4-1,0.6-1.6c-39.6-32.6-80.4-63.8-111.6-107.2c-1.8,6.2-3.7,11.2-4.5,16.3c-0.4,2.4,0.5,5.9,2.2,7.4
	c16.2,15,32.6,30,49.3,44.5c8.4,7.3,17.6,13.5,26.4,20.2c-2.4-0.2-4.5-1.1-6.4-2.2c-7.1-4.3-14.4-8.5-21.2-13.2
	c-19.2-13.2-38.3-26.6-54.4-43.8c-4.3-4.6-5.6-9.5-3.7-15.5C118.4,386.8,119.9,380.8,121.7,374.8L121.7,374.8z M320.2,246.6
	l-1.3,0.2c-0.7-2.5-1.4-5-2.1-7.5c-1-3.3-3-4.6-6.4-3.3c-9.4,3.4-18.7,2.1-27.9-0.8c-6.4-2-9.4,0-7.6,6.5c2.1,7.4,5,14.8,8.7,21.6
	c3.5,6.3,9.3,6.9,15.3,2.6c3.1-2.2,5.9-4.9,9-7.1c2.6-1.9,5.4-3.4,9.2-5.6c-2.8,7.4-0.9,12.8,5.8,16c0.5,0.2,0.9,0.7,1.3,0.7
	c2.8,0.1,5.7,0.4,8.5-0.1c2-0.3,4.2-1.4,5.8-2.7c2-1.7,4.9-4,4.8-5.9c-0.1-2.4-2.8-4.7-4.5-6.9c-1.3-1.7-3.6-3-4-4.8
	c-1.9-8.8-3.3-17.6-5-26.5c-0.4-1.8-1.4-3.4-2.2-5.1c-0.5,0-1.1,0.1-1.6,0.1C320.9,226.9,323,237.4,320.2,246.6L320.2,246.6z
	 M413.3,473.4c0.2,0.3,0.3,0.5,0.5,0.8c2.3-1.5,4.7-2.8,6.8-4.4c32.5-24.6,61.1-53.4,88.9-83.1c5.6-5.9,10.5-12.4,15.6-18.8
	c2.7-3.4,2.9-7.2,0.3-10.6c-4.7-6.2-9.1-12.8-14.6-18.2c-14.1-14-31.6-23.1-49.1-32.1c-0.9-0.4-1.8-0.6-2.7-0.9
	c4.6,4.7,9.6,8.5,14.2,12.9c12.5,11.9,25.1,23.9,37.1,36.3c6.3,6.5,6,8.8,1.4,16.3c-2.2,3.5-4.5,7-7.1,10.2
	c-20,25.3-43.2,47.5-66.6,69.5C430,458.8,421.6,466,413.3,473.4L413.3,473.4z M421.4,485.8c0.1,0.5,0.2,0.9,0.4,1.4
	c7.3-2,14.8-3.6,22-6.1c25.4-8.8,48.2-22.4,69.9-38c12.8-9.3,25.5-18.8,35.3-31.4c1.7-2.2,3.1-5.3,3.2-8
	c0.2-6.8-10.3-24.8-16.6-29.2c1.5,4.8,2.6,9.3,4.4,13.6c4,9.7,1.8,17.8-5.9,24.6c-12.3,11-24.1,22.5-37.1,32.5
	c-18.6,14.4-38.5,26.7-60.7,35.1C431.3,482.1,426.3,483.9,421.4,485.8L421.4,485.8z M507.7,619.6c20-20.2,39-41.1,55.6-64.1
	c7.7-10.6,9.7-21.9,6.6-34c-5-20.1-10.7-40.1-16.1-60.1c-1-3.8-2.5-7.4-3.8-11.1c-0.7,1.2-0.5,2.1-0.3,3.1c4.1,19,8.6,37.9,12.2,57
	c2.7,14,2.4,27.9-5.6,40.6c-7.8,12.2-15.3,24.5-23.7,36.3C524.8,598.3,516.1,608.8,507.7,619.6L507.7,619.6z M362.2,240.4
	c0-0.3,0-0.6,0-0.8c-2.8,0-5.7-0.4-8.4,0.2c-1.2,0.2-3.2,2.6-2.9,3.3c2.4,6.3,5,12.5,8,18.5c1.2,2.4,3.8,3.2,6.4,1.3
	c6.5-5,11.4-11,13.5-19.1c0.9-3.4-0.2-4.6-3.6-4.3C370.8,239.8,366.5,240,362.2,240.4L362.2,240.4z M462.1,565.9
	c15.4-12.9,30.7-25.7,45.9-38.5c-0.2-0.3-0.5-0.6-0.7-1c-16.9,10.9-33.9,21.8-51.1,32.8C458.3,561.6,459.9,563.5,462.1,565.9
	L462.1,565.9z M481.9,476.3c-5.8,17.8,1.8,38.1,17.4,47.7C487.4,510,482.6,494.5,481.9,476.3L481.9,476.3z"/>
<path class="st0" d="M309.7,349.8c4.7-8.3,3.9-17.1,3.8-25.9c-0.1-6.1,0.5-12.2,1.6-18.2c0.9-4.7,4.5-7.3,9.4-7.4
	c2.7-0.1,5.3-0.2,8,0c5.8,0.5,9.3,3.3,10.5,9c0.9,4.5,1.6,9.3,1.2,13.8c-1,10-1.4,19.9,2.8,29.5c-0.5,0.1-0.9,0.3-1.4,0.4
	c-1.1-2.8-2.9-5.5-3.1-8.4c-0.6-7.3-0.4-14.6-0.6-21.9c-0.1-3.5-0.1-7-0.8-10.4c-1.1-5.9-4.8-8.3-11.6-8.2v54.8
	c0.3,0.1,0.6,0.2,0.9,0.3c1.6-2.8,3.1-5.6,5.2-9.2c0.4,1.8,0.6,2.8,0.8,3.7c2.8,12.5,4.5,25.3,8.5,37.4c8.5,26.1,6.8,51.9-1,77.6
	c-3.2,10.8-7.3,21.3-11.2,32.7c13.2-7.8,22.3-18.5,25.8-33c3.3-13.6,5.1-27.6,7.5-41.5c9.2,11.8,18.3,24.1,23,39.9
	c4.1-6.6,4.4-13,3.8-19.4c-0.9-9.4-2.1-18.9-3.4-28.2c-1.6-11.8,1.3-24.2,8.1-32c4.2,8.5,6.3,18.2,13.6,23.7
	c2.5-12.9,5.3-25.4,7.3-38.1c2.1-12.9-2-24.7-8-35.9c-0.7-1.3-1.4-2.6-2.1-4c-0.1-0.2,0-0.6,0.2-2.1c7.4,2,14.7,3.9,22.1,5.9
	c-0.9-23.5-16.6-41.4-25.8-62.1c0.7,7.2,1.4,14.3,2.1,21.5c-0.3,0.2-0.6,0.5-1,0.7c-4-4.3-8-8.7-12.8-13.8c0.8,17.4-2,33.1-8.8,48.2
	c-0.3-6.4-0.6-12.8-1-20.4c1.1,3.9,1.9,6.7,3,10.4c4.2-17.5,7.1-33.9,0.7-50.9c5.1,6.4,10.2,12.7,16.3,20.3v-25.6
	c8.5,17.3,22.9,30.9,29,49.3c4.4,13.3,6.2,26.5,3.4,40.3c-0.3,1.4-0.8,2.7-1.6,5.7c-3.3-9.9-7.5-17.4-16.3-21.5
	c2.4,6.9,6.2,13.4,6.4,19.9c0.3,10.1-2,20.4-2.8,30.6c-0.6,8.2-1.1,16.5-0.8,24.8c0.1,3.6,2.2,7.1,3.7,11.4
	c-12-3.8-22-9.5-27.4-21.6c-0.5,0.1-1.1,0.3-1.6,0.4c0.4,5.2,0.5,10.5,1.2,15.6c1.3,10,4.1,20,4,30c-0.3,15.6-7.4,28.3-21.5,37.1
	c4.7-15.3,0.9-28.7-7.5-42c-1,7.2-1.8,13.7-2.9,20.1c-2.6,15.2-9.8,28.2-19.9,39.6c-6.6,7.4-13.3,14.8-20.1,22.4
	c-14.1-17.6-32.6-32.1-38.2-55.5c-2-8.5-3-17.2-4.6-26.3c-8.4,12.8-11.6,26.2-7,41.2c-0.5,0.3-1,0.6-1.5,0.9
	c-3.8-3.9-8.2-7.4-11.4-11.8c-10.6-14.8-11.3-31.1-6.7-48.2c1.3-4.6,2.2-9.4,2.8-14.2c0.4-2.8-0.2-5.7-1-8.7
	c-6.2,11.5-16.2,17-28.7,21.3c9-15.5,5.2-30.8,2-45.5c-2.9-13.7-2.5-26.4,4.6-38.6c0.3-0.6,0.5-1.2,0.7-1.8c0-0.1-0.1-0.3-0.4-1
	c-8.6,4.2-12.9,11.6-15.8,21.6c-4.8-14.1-4-26.8-0.5-39.5c4-14.5,11.8-27,20.4-39.2c4.1-5.9,7.4-12.5,11-18.8
	c2.1,7.9,0.5,16.1-1,24.9c4.1-5,8.2-9.9,12.3-14.9c-5.1,18.5-0.3,35.6,5.9,53.3c1.1-6.9,2.1-13,3-18.4c4.5,9.9,9.1,19.8,13.6,29.7
	c0.6-0.2,1.1-0.4,1.7-0.6c-0.9-5.8-1.4-11.7-2.8-17.5c-5.9-25.1,13.8-41,36.4-39.3c7.7,0.6,15.7-0.2,23.2,1.2
	c17.1,3.2,26.1,16.6,23.6,34c-2.2-8.8-2-18.6-10.6-24.5c-7.9-5.4-16.1-8.8-26.2-6.2c7.1,5.7,18.2,7.2,19.7,19.7
	c-8.6-13.4-26.3-17.6-39.8-10.3c-6.2,3.4-9.2,8.7-8.3,15.7c1.3,10.2,3.2,20.4,4.5,30.6C310.1,342,309.7,345.9,309.7,349.8
	L309.7,349.8z"/>
<path class="st0" d="M483.2,296.2c-12.9,5.5-21.4-3.6-32-6.1c3-8.3,2.4-15.9-0.4-23.4c-3-8.3-9.5-13.6-15.7-19.1
	c-20-17.7-41.1-34-64.9-46.3c-14.3-7.4-29-13.6-45.7-12.3c-12.2,0.9-23.3,5.3-34.1,10.7c-28.8,14.5-54.1,34.1-77.1,56.5
	c-8.1,7.9-11,18.6-8.1,30c0.8,3.1-0.1,4.2-2.6,5.2c-2,0.7-4,1.8-6,2.4c-3.5,1.2-8.6,4.1-10.4,2.8c-4.8-3.5-9.1-8.4-11.9-13.7
	c-3.3-6.2-2.1-12.8,2.4-18.7c14.6-19.5,31.8-36.4,50.5-51.7c13.5-11,27.8-20.9,41.4-30.9c-24.1,4.9-44.2,19.6-65.3,32.7
	c21.2-42.9,46.6-81.9,95-100.3c-13.8-1.1-25.2,3.2-36.9,9.6c1.8-9.9,6.6-16.9,12.7-23c15.2-15.2,30.6-30.1,46.1-45.1
	c6.3-6.1,9.1-6.8,14-2.1c18.1,17.4,36,35,53.7,52.8c2.9,2.9,4.6,7.2,6.9,10.8c-0.4,0.2-0.7,0.5-1.1,0.8c-1.4-2-2.6-4.3-4.3-6
	c-8-8-16.1-15.9-24.3-23.7c-4.5-4.2-9.1-8.3-14.1-11.9c-2-1.5-5.6-2.5-7.6-1.6c-1.5,0.6-2.8,4.6-2.5,6.8c1,7.2,2.4,14.4,4.6,21.3
	c2.1,6.5,7,10.2,13.9,12.2c19.4,5.5,35.1,17.2,49.1,31.3c16.7,16.9,37,46.7,43.2,64.5c-0.8-1.2-1.6-2.3-2.5-3.5
	c-14.6-20.9-30.2-41.1-49.7-57.8c-12.9-11-28-17.9-44.3-22c-4.9-1.2-8.2,0.6-9.3,5c-3.9,15.3-2.1,30.1,6.1,43.7
	c1.2,2,3.5,3.6,5.7,4.7c30.1,16,56.4,37.1,81.5,59.8c10.1,9.2,18,19.5,22.2,32.5c0.9,2.8,1.9,6,1.3,8.8c-1,5.2,1.9,7.6,5.6,9.2
	C472.7,293.2,477.4,294.4,483.2,296.2L483.2,296.2z"/>
<path class="st0" d="M285.4,568.6c-8,3.1-16,6.2-24,9.3c0.2,0.7,0.4,1.3,0.6,2c11-2.4,22.1-4.7,33.7-7.2c1.9,8.1-0.6,16.3-1,25.9
	c5.9-8.3,9.6-17.1,19-19.9c2.5-0.8,5.3-0.5,8.1-0.3c-19.5,14.6-27.2,36.3-35.8,57.2c-8.8,21.4-15.3,43.6-19.6,66.5
	c-5.8-22.3,0-43.7,4.9-65.6c-2,2.9-4.3,5.6-6,8.7c-4.9,8.7-9.6,17.5-14.4,26.3c-0.4,0.7-0.9,1.4-1.3,2.2
	c-8.1,13.3-11.5,14.6-25.8,9.3c-6.8-2.5-13.3-5.8-21.2-9.2c2.4-2,3.6-3,4.9-3.8c12.1-7.4,21.6-17.7,30.2-28.7c1-1.3,1-3.4,1.5-5.2
	c-0.4-0.3-0.8-0.6-1.3-0.9c-1.8,1-3.7,1.7-5.3,2.9c-7.3,5.8-14.3,12-21.7,17.6c-5.8,4.5-11.9,8.7-19.9,8.2
	c-8.6-0.5-13.7-5.8-12-14.2c6.4-30.5,18.2-58.4,39.4-81.8c8.1-8.9,17.6-13,29.9-9.8c10.5,2.7,21.2,4.4,31.8,6.7
	c1.8,0.4,3.5,1.5,5.2,2.3C285.2,567.5,285.3,568,285.4,568.6L285.4,568.6z"/>
<path class="st0" d="M118.8,568.9c13,19.6,26,39.2,39.4,59.4c-3.4-3-6.4-5.2-8.9-8c-17.3-20-34.5-40.1-51.8-60.1
	c-10.1-11.8-13.3-25-10.1-40.4c5.3-26.2,13.4-51.5,22.8-76.5c0.1-0.3,0.4-0.5,1.4-1.8c-3,17.8-5.8,34.4-8.6,51
	c0.4,0.1,0.8,0.3,1.2,0.4c6.2-14.8,12.4-29.5,18.5-44c10.7,6.5,20.9,12.6,31.2,18.8c0.1,0.1,0.3,0.2,0.4,0.2
	c3.4,2.1,8.9,3.6,9.9,6.6c2.1,5.9,3,12.8,2.3,19.1c-1.5,12.8-8.2,23.1-18.5,30.8c-2.3,1.7-5.6,2.2-8.6,2.5c-3.1,0.3-6.2-0.2-9.8,0.8
	c21.1,12.2,42.3,24.4,63.9,36.9c-12.4,13.8-17.4,31-25.4,47.7c-16.5-14.9-32.6-29.5-48.7-44L118.8,568.9L118.8,568.9z"/>
<path class="st0" d="M247.1,477.5c-10.6-8.3-21.8-15.8-31.5-25c-23.9-22.6-47.2-46-70.6-69.2c-4.5-4.4-8.2-9.6-12.2-14.5
	c-3.2-4-3.1-8-0.4-12.4c10.2-16.6,25.1-27.8,41.4-37.5c6.7-4,13.7-7.6,20.5-11.3c1.4-0.8,2.9-1.3,4.6-2.1
	c-18.1,17.4-35.8,34.4-53.9,51.8c19.1,21.8,37.6,43,56.1,64.1c0.2-0.1,0.4-0.3,0.6-0.4c-2.1-3.2-4.4-6.3-6.4-9.5
	c-9.2-14.8-18.2-29.8-27.5-44.5c-4.2-6.6-4.5-12.1,1.5-18c12.4-12.3,24.2-25,36.3-37.6c0.5,0.3,1,0.6,1.5,0.8
	c-0.4,1.8-0.8,3.5-1.3,5.2c-5,19.8-3.1,38.9,8.1,56.2c8.2,12.8,10.4,26,5.9,40.4c-2.8,9.1-2.7,18.4,1.3,26.9
	c3.1,6.6,8.1,12.5,12.6,18.3c4.6,5.9,9.8,11.3,14.7,16.9C248,476.5,247.6,477,247.1,477.5L247.1,477.5z"/>
<path class="st0" d="M334.5,578.5c13-2.3,18.8,5.7,25.2,13.4c-0.4-2.2-0.9-4.4-1.3-6.5c-1.8-9.7,0.1-14.5,9.6-17.4
	c13.3-4,27.2-6.3,40.6-10c17.2-4.7,27.6,5.1,36.8,16.8c16.2,20.8,26.2,44.7,32.4,70.2c0.2,0.8,0,1.8,0,4.1
	c-5.9-10.3-10.9-19.4-16.3-28.3c-8.4-13.8-17-27.5-25.8-41c-2.1-3.3-5.4-5.8-8.1-8.7c-0.7,0.3-1.4,0.7-2.1,1c0.6,4.6,1,9.2,1.9,13.8
	c2.8,15.7-2,20.5-17.8,17.6c-7.9-1.5-15.6-3.4-23.4-5.1c-1.6-0.3-3.2-0.5-6-0.8c1.7,3.7,3,6.5,4.3,9.3c8.8,17.6,18.9,34.4,31,50
	c6.3,8.1,14.3,12.8,24.4,14c3.2,0.4,6.3,1.1,9.5,1.7c0,0.5-0.1,1.1-0.1,1.6c-1.8,0.5-3.7,1.1-5.5,1.4c-16.7,2.2-31.1-1.9-41.7-15.8
	c-4-5.3-7.5-11-11.3-16.5c-1.6-2.3-3.3-4.6-5.3-6.8c5.7,21.6,11.4,43.2,5.3,65.7c-1.5-7.2-2.9-14.4-4.7-21.5
	c-6.9-26.7-15.9-52.6-29.2-76.8C351.6,594,345.5,584.9,334.5,578.5L334.5,578.5z"/>
<path class="st0" d="M121.7,374.8c-1.7,6-3.3,12-5.2,18c-1.9,6-0.6,10.9,3.7,15.5c16.1,17.1,35.1,30.6,54.4,43.8
	c6.9,4.7,14.1,8.9,21.2,13.2c1.9,1.1,4,2,6.4,2.2c-8.8-6.7-18.1-13-26.4-20.2c-16.7-14.5-33.1-29.5-49.3-44.5
	c-1.7-1.5-2.6-5.1-2.2-7.4c0.8-5.1,2.7-10.1,4.5-16.3c31.2,43.4,72,74.6,111.6,107.2c-0.2,0.5-0.4,1-0.6,1.6
	c-7.6-1.8-15.4-3.2-22.9-5.6c-25.5-8.2-48.4-21.3-69.9-37c-12.2-8.9-23.2-19.4-34.8-29.1c-7.4-6.3-9-13.7-4-22.1
	c3.9-6.6,8.2-13.1,12.4-19.6C120.8,374.3,121.2,374.5,121.7,374.8L121.7,374.8z"/>
<path class="st0" d="M320.2,246.6c2.8-9.3,0.6-19.7,5.6-28.5c0.5,0,1.1-0.1,1.6-0.1c0.8,1.7,1.8,3.3,2.2,5.1
	c1.7,8.8,3.1,17.7,5,26.5c0.4,1.8,2.7,3.1,4,4.8c1.7,2.2,4.4,4.6,4.5,6.9c0.1,1.9-2.8,4.3-4.8,5.9c-1.6,1.3-3.8,2.4-5.8,2.7
	c-2.8,0.5-5.6,0.1-8.5,0.1c-0.4,0-0.9-0.5-1.3-0.7c-6.7-3.2-8.6-8.6-5.8-16c-3.7,2.3-6.6,3.8-9.2,5.6c-3.1,2.2-5.9,4.9-9,7.1
	c-6,4.2-11.8,3.7-15.3-2.6c-3.8-6.8-6.7-14.1-8.7-21.6c-1.8-6.5,1.2-8.5,7.6-6.5c9.2,2.8,18.5,4.2,27.9,0.8c3.4-1.2,5.5,0,6.4,3.3
	c0.7,2.5,1.4,5,2.1,7.5L320.2,246.6L320.2,246.6z"/>
<path class="st0" d="M413.3,473.4c8.2-7.4,16.6-14.6,24.7-22.2c23.4-22,46.6-44.2,66.6-69.5c2.6-3.3,4.9-6.7,7.1-10.2
	c4.6-7.5,4.9-9.8-1.4-16.3c-12-12.4-24.6-24.3-37.1-36.3c-4.5-4.3-9.6-8.2-14.2-12.9c0.9,0.3,1.9,0.5,2.7,0.9
	c17.5,9,34.9,18.2,49.1,32.1c5.5,5.4,9.9,12,14.6,18.2c2.6,3.5,2.4,7.3-0.3,10.6c-5.1,6.4-10.1,12.9-15.6,18.8
	c-27.8,29.6-56.4,58.5-89,83.1c-2.2,1.6-4.6,3-6.8,4.4C413.7,473.9,413.5,473.7,413.3,473.4L413.3,473.4z"/>
<path class="st0" d="M421.4,485.8c4.9-1.9,9.9-3.7,14.8-5.6c22.2-8.4,42.1-20.7,60.7-35.1c13-10,24.8-21.6,37.1-32.5
	c7.6-6.8,9.9-14.9,5.9-24.6c-1.8-4.3-2.9-8.8-4.4-13.6c6.3,4.5,16.8,22.4,16.6,29.2c-0.1,2.7-1.5,5.8-3.2,8
	c-9.9,12.6-22.5,22.1-35.3,31.4c-21.7,15.6-44.5,29.2-69.9,38c-7.2,2.5-14.6,4.1-22,6.1C421.6,486.7,421.5,486.2,421.4,485.8
	L421.4,485.8z"/>
<path class="st0" d="M507.8,619.5c8.3-10.8,17-21.2,24.9-32.3c8.3-11.8,15.9-24.2,23.7-36.3c8-12.6,8.3-26.6,5.6-40.5
	c-3.6-19.1-8.1-38-12.2-57c-0.2-0.9-0.3-1.9,0.3-3.1c1.3,3.7,2.8,7.3,3.8,11.1c5.5,20,11.1,40,16.1,60.1c3,12.1,1,23.4-6.6,34
	C546.7,578.4,527.8,599.3,507.8,619.5L507.8,619.5z"/>
<path class="st0" d="M362.2,240.3c4.3-0.3,8.6-0.6,12.8-1c3.4-0.4,4.5,0.8,3.6,4.3c-2.1,8.1-7,14.2-13.5,19.1
	c-2.5,1.9-5.1,1.1-6.4-1.3c-3-6-5.6-12.2-8-18.5c-0.3-0.7,1.7-3.1,2.9-3.3c2.7-0.5,5.6-0.2,8.4-0.2
	C362.2,239.8,362.2,240.1,362.2,240.3L362.2,240.3z"/>
<path class="st0" d="M462.1,565.9c-2.1-2.4-3.8-4.2-5.9-6.6c17.2-11.1,34.2-22,51.1-32.8c0.2,0.3,0.5,0.6,0.7,1
	C492.7,540.2,477.5,553,462.1,565.9L462.1,565.9z"/>
<path class="st0" d="M481.9,476.3c0.7,18.2,5.5,33.7,17.4,47.7C483.7,514.3,476.1,494,481.9,476.3L481.9,476.3z"/>
</svg>
